<svg width="140" height="24" viewBox="0 0 140 24" fill="none" xmlns="http://www.w3.org/2000/svg">
<path d="M8.58699 8.23594L11.185 3.00394C11.2606 2.85253 11.3769 2.72517 11.5209 2.63616C11.6648 2.54715 11.8307 2.5 12 2.5C12.1692 2.5 12.3351 2.54715 12.4791 2.63616C12.6231 2.72517 12.7394 2.85253 12.815 3.00394L15.413 8.23594L21.221 9.07994C21.3885 9.10317 21.5461 9.17303 21.6759 9.28155C21.8056 9.39007 21.9022 9.53288 21.9546 9.69367C22.0071 9.85446 22.0133 10.0268 21.9725 10.1909C21.9317 10.355 21.8456 10.5044 21.724 10.6219L17.522 14.6919L18.514 20.4419C18.641 21.1799 17.861 21.7419 17.194 21.3939L12 18.6779L6.80499 21.3939C6.13899 21.7429 5.35899 21.1799 5.48599 20.4409L6.47799 14.6909L2.27599 10.6209C2.15498 10.5033 2.06939 10.3541 2.02896 10.1903C1.98852 10.0264 1.99487 9.85451 2.04726 9.69409C2.09966 9.53367 2.19601 9.39116 2.32536 9.28277C2.45471 9.17439 2.61188 9.10446 2.77899 9.08094L8.58699 8.23594Z" stroke="#E6D439" stroke-linecap="round" stroke-linejoin="round"/>
<path d="M37.587 8.23594L40.185 3.00394C40.2606 2.85253 40.3769 2.72517 40.5209 2.63616C40.6648 2.54715 40.8307 2.5 41 2.5C41.1692 2.5 41.3351 2.54715 41.4791 2.63616C41.6231 2.72517 41.7394 2.85253 41.815 3.00394L44.413 8.23594L50.221 9.07994C50.3885 9.10317 50.5461 9.17303 50.6759 9.28155C50.8056 9.39007 50.9022 9.53288 50.9546 9.69367C51.0071 9.85446 51.0133 10.0268 50.9725 10.1909C50.9317 10.355 50.8456 10.5044 50.724 10.6219L46.522 14.6919L47.514 20.4419C47.641 21.1799 46.861 21.7419 46.194 21.3939L41 18.6779L35.805 21.3939C35.139 21.7429 34.359 21.1799 34.486 20.4409L35.478 14.6909L31.276 10.6209C31.155 10.5033 31.0694 10.3541 31.029 10.1903C30.9885 10.0264 30.9949 9.85451 31.0473 9.69409C31.0997 9.53367 31.196 9.39116 31.3254 9.28277C31.4547 9.17439 31.6119 9.10446 31.779 9.08094L37.587 8.23594Z" stroke="#E6D439" stroke-linecap="round" stroke-linejoin="round"/>
<path d="M66.587 8.23594L69.185 3.00394C69.2606 2.85253 69.3769 2.72517 69.5209 2.63616C69.6648 2.54715 69.8307 2.5 70 2.5C70.1692 2.5 70.3351 2.54715 70.4791 2.63616C70.6231 2.72517 70.7394 2.85253 70.815 3.00394L73.413 8.23594L79.221 9.07994C79.3885 9.10317 79.5461 9.17303 79.6759 9.28155C79.8056 9.39007 79.9022 9.53288 79.9546 9.69367C80.0071 9.85446 80.0133 10.0268 79.9725 10.1909C79.9317 10.355 79.8456 10.5044 79.724 10.6219L75.522 14.6919L76.514 20.4419C76.641 21.1799 75.861 21.7419 75.194 21.3939L70 18.6779L64.805 21.3939C64.139 21.7429 63.359 21.1799 63.486 20.4409L64.478 14.6909L60.276 10.6209C60.155 10.5033 60.0694 10.3541 60.029 10.1903C59.9885 10.0264 59.9949 9.85451 60.0473 9.69409C60.0997 9.53367 60.196 9.39116 60.3254 9.28277C60.4547 9.17439 60.6119 9.10446 60.779 9.08094L66.587 8.23594Z" stroke="#E6D439" stroke-linecap="round" stroke-linejoin="round"/>
<path d="M95.587 8.23594L98.185 3.00394C98.2606 2.85253 98.3769 2.72517 98.5209 2.63616C98.6648 2.54715 98.8307 2.5 99 2.5C99.1692 2.5 99.3351 2.54715 99.4791 2.63616C99.6231 2.72517 99.7394 2.85253 99.815 3.00394L102.413 8.23594L108.221 9.07994C108.389 9.10317 108.546 9.17303 108.676 9.28155C108.806 9.39007 108.902 9.53288 108.955 9.69367C109.007 9.85446 109.013 10.0268 108.972 10.1909C108.932 10.355 108.846 10.5044 108.724 10.6219L104.522 14.6919L105.514 20.4419C105.641 21.1799 104.861 21.7419 104.194 21.3939L99 18.6779L93.805 21.3939C93.139 21.7429 92.359 21.1799 92.486 20.4409L93.478 14.6909L89.276 10.6209C89.155 10.5033 89.0694 10.3541 89.029 10.1903C88.9885 10.0264 88.9949 9.85451 89.0473 9.69409C89.0997 9.53367 89.196 9.39116 89.3254 9.28277C89.4547 9.17439 89.6119 9.10446 89.779 9.08094L95.587 8.23594Z" stroke="#E6D439" stroke-linecap="round" stroke-linejoin="round"/>
<path d="M124.587 8.23594L127.185 3.00394C127.261 2.85253 127.377 2.72517 127.521 2.63616C127.665 2.54715 127.831 2.5 128 2.5C128.169 2.5 128.335 2.54715 128.479 2.63616C128.623 2.72517 128.739 2.85253 128.815 3.00394L131.413 8.23594L137.221 9.07994C137.389 9.10317 137.546 9.17303 137.676 9.28155C137.806 9.39007 137.902 9.53288 137.955 9.69367C138.007 9.85446 138.013 10.0268 137.972 10.1909C137.932 10.355 137.846 10.5044 137.724 10.6219L133.522 14.6919L134.514 20.4419C134.641 21.1799 133.861 21.7419 133.194 21.3939L128 18.6779L122.805 21.3939C122.139 21.7429 121.359 21.1799 121.486 20.4409L122.478 14.6909L118.276 10.6209C118.155 10.5033 118.069 10.3541 118.029 10.1903C117.989 10.0264 117.995 9.85451 118.047 9.69409C118.1 9.53367 118.196 9.39116 118.325 9.28277C118.455 9.17439 118.612 9.10446 118.779 9.08094L124.587 8.23594Z" stroke="#E6D439" stroke-linecap="round" stroke-linejoin="round"/>
</svg>
